<svg xmlns="http://www.w3.org/2000/svg" viewBox="0 0 148 148"><defs><style>.cls-1{fill:#a65bee;}</style></defs><title>AE</title><g id="Capa_2" data-name="Capa 2"><g id="Capa_1-2" data-name="Capa 1"><path class="cls-1" d="M141,7V141H7V7H141m7-7H0V148H148V0Z"/><path class="cls-1" d="M61.48,90.28H38.84l-4,11.36H22.92L43.72,45.8H56.6l20.72,55.84H65.4Zm-3-8.56L50.12,57.88,41.8,81.72Z"/><path class="cls-1" d="M124.68,81.64H92.2c.16,4,1.23,6.85,3.2,8.72a10.28,10.28,0,0,0,7.36,2.8,10.68,10.68,0,0,0,6.52-1.92A8.51,8.51,0,0,0,112.6,86h11.92a19.11,19.11,0,0,1-3.76,8.32,19.74,19.74,0,0,1-7.4,5.76,25.35,25.35,0,0,1-21.56-.68A19.44,19.44,0,0,1,84,91.56a24.76,24.76,0,0,1-2.8-12.08A25,25,0,0,1,84,67.36a19.08,19.08,0,0,1,7.84-7.88,23.91,23.91,0,0,1,11.52-2.72,23.39,23.39,0,0,1,11.48,2.72A19.19,19.19,0,0,1,122.4,67a21.68,21.68,0,0,1,2.68,10.84A21.06,21.06,0,0,1,124.68,81.64Zm-13.8-13.2a10.8,10.8,0,0,0-7.56-2.8,11.06,11.06,0,0,0-7.68,2.8c-2.08,1.87-3.23,4.61-3.44,8.24h21.52C113.88,73.05,112.93,70.31,110.88,68.44Z"/></g></g></svg>