<?xml version="1.0" encoding="utf-8"?>
<!-- Generator: Adobe Illustrator 23.1.0, SVG Export Plug-In . SVG Version: 6.00 Build 0)  -->
<svg version="1.1" id="Capa_1" xmlns="http://www.w3.org/2000/svg" xmlns:xlink="http://www.w3.org/1999/xlink" x="0px" y="0px"
	 viewBox="0 0 148 148" style="enable-background:new 0 0 148 148;" xml:space="preserve">
<style type="text/css">
	.st0{fill:#D86619;}
</style>
<title>AI</title>
<g>
	<g id="Capa_1-2">
		<path class="st0" d="M141,7v134H7V7H141 M148,0H0v148h148V0z"/>
		<path class="st0" d="M71.1,49.8H58.2l-20.8,55.8h11.9l4-11.4H76l3.9,11.4h11.9L71.1,49.8z M56.3,85.7l8.3-23.8L73,85.7H56.3z"/>
		<path class="st0" d="M103.6,42.4c-1.8-0.1-3.6,0.5-5,1.7c-1.3,1.1-2,2.7-1.9,4.4c0,1.7,0.7,3.3,1.9,4.4c3,2.3,7.1,2.3,10.1,0
			c1.3-1.1,2-2.7,1.9-4.4c0.1-1.7-0.7-3.3-1.9-4.4C107.3,42.9,105.5,42.3,103.6,42.4L103.6,42.4z M109.2,61.3H97.9v44.3h11.3V61.3z"
			/>
	</g>
</g>
</svg>
