<svg xmlns="http://www.w3.org/2000/svg" viewBox="0 0 148 148"><title>CSS</title><g id="Capa_2" data-name="Capa 2"><g id="Capa_1-2" data-name="Capa 1"><path d="M141,7V141H7V7H141m7-7H0V148H148V0Z"/><path d="M51.8,100.94q-4.08,0-5.82-1.83a6.48,6.48,0,0,1-1.74-4.65v-2.7a9.52,9.52,0,0,1,.33-2.64,10.58,10.58,0,0,1,.81-2,8.52,8.52,0,0,1,1.08-1.59q.6-.69,1.14-1.35A9.26,9.26,0,0,0,49,82.07a4.42,4.42,0,0,0,.39-1.83,2.61,2.61,0,0,0-1.62-2.4A10.93,10.93,0,0,0,42.92,77h-5.4V71h5.4a10.93,10.93,0,0,0,4.86-.84,2.61,2.61,0,0,0,1.62-2.4A4.42,4.42,0,0,0,49,65.93a9.26,9.26,0,0,0-1.41-2.07q-.54-.6-1.14-1.32a9.51,9.51,0,0,1-1.08-1.62,10.58,10.58,0,0,1-.81-2,9.52,9.52,0,0,1-.33-2.64v-2.7A6.48,6.48,0,0,1,46,48.89q1.74-1.83,5.82-1.83H62.48V53H51.38v2.88a6.61,6.61,0,0,0,.75,3.48q.75,1.2,1.65,2.4a27.18,27.18,0,0,1,1.92,2.7,6.21,6.21,0,0,1,.9,3.36,5,5,0,0,1-1.74,4,9.85,9.85,0,0,1-5.34,1.92v.48a9.85,9.85,0,0,1,5.34,1.92,5,5,0,0,1,1.74,4,6.21,6.21,0,0,1-.9,3.36,27.18,27.18,0,0,1-1.92,2.7q-.9,1.2-1.65,2.4a6.61,6.61,0,0,0-.75,3.48V95h11.1v5.94Z"/><path d="M96.2,47.06q4.08,0,5.82,1.83a6.48,6.48,0,0,1,1.74,4.65v2.7a9.52,9.52,0,0,1-.33,2.64,10.58,10.58,0,0,1-.81,2,9.51,9.51,0,0,1-1.08,1.62q-.6.72-1.14,1.32A9.26,9.26,0,0,0,99,65.93a4.42,4.42,0,0,0-.39,1.83,2.61,2.61,0,0,0,1.62,2.4,10.93,10.93,0,0,0,4.86.84h5.4v6h-5.4a10.93,10.93,0,0,0-4.86.84,2.61,2.61,0,0,0-1.62,2.4A4.42,4.42,0,0,0,99,82.07a9.26,9.26,0,0,0,1.41,2.07q.54.66,1.14,1.35a8.52,8.52,0,0,1,1.08,1.59,10.58,10.58,0,0,1,.81,2,9.52,9.52,0,0,1,.33,2.64v2.7A6.48,6.48,0,0,1,102,99.11q-1.74,1.83-5.82,1.83H85.52V95h11.1V92.12a6.61,6.61,0,0,0-.75-3.48q-.75-1.2-1.65-2.4a27.18,27.18,0,0,1-1.92-2.7,6.21,6.21,0,0,1-.9-3.36,5,5,0,0,1,1.74-4,9.85,9.85,0,0,1,5.34-1.92v-.48a9.85,9.85,0,0,1-5.34-1.92,5,5,0,0,1-1.74-4,6.21,6.21,0,0,1,.9-3.36,27.18,27.18,0,0,1,1.92-2.7q.9-1.2,1.65-2.4a6.61,6.61,0,0,0,.75-3.48V53H85.52V47.06Z"/></g></g></svg>