<svg xmlns="http://www.w3.org/2000/svg" viewBox="0 0 148 148"><defs><style>.cls-1{fill:#dd0b61;}</style></defs><title>ID</title><g id="Capa_2" data-name="Capa 2"><g id="Capa_1-2" data-name="Capa 1"><path class="cls-1" d="M141,7V141H7V7H141m7-7H0V148H148V0Z"/><path class="cls-1" d="M52.6,46.84v56.48H41.32V46.84Z"/><path class="cls-1" d="M89.76,61.08a14.87,14.87,0,0,1,5.72,7.12V44.12h11.2v59.2H95.48V94a15.11,15.11,0,0,1-5.72,7.16,16.63,16.63,0,0,1-9.56,2.68,19.08,19.08,0,0,1-10.08-2.72,18.34,18.34,0,0,1-7-7.88A27.33,27.33,0,0,1,60.6,81.16,27.33,27.33,0,0,1,63.12,69a18.34,18.34,0,0,1,7-7.88A19.08,19.08,0,0,1,80.2,58.44,16.85,16.85,0,0,1,89.76,61.08ZM75.24,71.72Q72,75.16,72,81.16t3.2,9.4a12.12,12.12,0,0,0,16.92-.08,13,13,0,0,0,3.32-9.32q0-5.93-3.32-9.4a11.16,11.16,0,0,0-8.44-3.48A11,11,0,0,0,75.24,71.72Z"/></g></g></svg>