<svg xmlns="http://www.w3.org/2000/svg" viewBox="0 0 148 148"><title>JS</title><g id="Capa_2" data-name="Capa 2"><g id="Capa_1-2" data-name="Capa 1"><path d="M141,7V141H7V7H141m7-7H0V148H148V0Z"/><path d="M85.9,80v30.18a12.89,12.89,0,0,1-1,5.13,10.94,10.94,0,0,1-2.83,3.93,12.71,12.71,0,0,1-4.4,2.49,18,18,0,0,1-5.76.87c-4.29,0-7.59-1.06-9.93-3.18a14.44,14.44,0,0,1-4.47-8.4L66,109.28a9.53,9.53,0,0,0,1.83,4.38,4.88,4.88,0,0,0,4,1.68,4.52,4.52,0,0,0,3.57-1.47,6.81,6.81,0,0,0,1.29-4.54v-22H63V80Z"/><path d="M108.57,122.6a22.55,22.55,0,0,1-9.18-1.72,16.53,16.53,0,0,1-6.3-4.7l5.22-5.76a14.81,14.81,0,0,0,5,3.72,13.67,13.67,0,0,0,5.55,1.2,7.32,7.32,0,0,0,4.92-1.45,5.23,5.23,0,0,0,1.68-4.18,4.28,4.28,0,0,0-1.29-3.38,8.57,8.57,0,0,0-4.35-1.64l-4.38-.72q-5.64-1-8.16-4.16A12.28,12.28,0,0,1,94.77,92q0-6.06,4-9.38t11.1-3.33a22.09,22.09,0,0,1,8.46,1.49,15.2,15.2,0,0,1,5.82,4L119,90.5a11.85,11.85,0,0,0-9.12-4q-6.06,0-6.06,5a4,4,0,0,0,1.35,3.27,10,10,0,0,0,4.41,1.63l4.38.78a13.68,13.68,0,0,1,7.86,3.84,11.08,11.08,0,0,1,2.76,7.91,14.14,14.14,0,0,1-1,5.42,11.7,11.7,0,0,1-3.06,4.32,14.23,14.23,0,0,1-5,2.84A21.34,21.34,0,0,1,108.57,122.6Z"/></g></g></svg>