<svg xmlns="http://www.w3.org/2000/svg" viewBox="0 0 148 148"><defs><style>.cls-1{fill:#424cc9;}</style></defs><title>PR</title><g id="Capa_2" data-name="Capa 2"><g id="Capa_1-2" data-name="Capa 1"><path class="cls-1" d="M141,7V141H7V7H141m7-7H0V148H148V0Z"/><path class="cls-1" d="M49.76,81.28v21H38.48V45.76H59q10,0,15.08,4.8t5.08,13q0,8.08-5.24,12.88T59,81.28Zm18-17.68q0-4.24-2.32-6.48t-7.6-2.24H49.76V72.24h8.08Q67.76,72.24,67.76,63.6Z"/><path class="cls-1" d="M104.4,59.72a17.4,17.4,0,0,1,9.12-2.44V69.36h-3.28q-12.4,0-12.4,11.52v21.36H86.56V57.92H97.84V66.4A18.51,18.51,0,0,1,104.4,59.72Z"/></g></g></svg>