<svg xmlns="http://www.w3.org/2000/svg" viewBox="0 0 148 148"><defs><style>.cls-1{fill:#0058af;}</style></defs><title>PS</title><g id="Capa_2" data-name="Capa 2"><g id="Capa_1-2" data-name="Capa 1"><path class="cls-1" d="M141,7V141H7V7H141m7-7H0V148H148V0Z"/><path class="cls-1" d="M43.8,81v21H32.52V45.48H53.08q10,0,15.08,4.8t5.08,13q0,8.08-5.24,12.88T53.08,81Zm18-17.68q0-4.24-2.32-6.48t-7.6-2.24H43.8V72h8.08Q61.8,72,61.8,63.32Z"/><path class="cls-1" d="M108.84,61.16A17.69,17.69,0,0,1,114.92,72H104.36a8.83,8.83,0,0,0-2.88-5.12A8.65,8.65,0,0,0,95.64,65a6.7,6.7,0,0,0-4.48,1.36A4.57,4.57,0,0,0,89.56,70a3.75,3.75,0,0,0,1.28,3A9.19,9.19,0,0,0,94,74.76c1.28.43,3.12.93,5.52,1.52a56.89,56.89,0,0,1,8.2,2.36,13.55,13.55,0,0,1,5.44,3.92,10.81,10.81,0,0,1,2.28,7.24A11.18,11.18,0,0,1,111,99q-4.44,3.52-12,3.52-8.64,0-13.84-3.88a16.32,16.32,0,0,1-6.32-11.08h10.8a7.31,7.31,0,0,0,2.88,5.16,10.45,10.45,0,0,0,6.48,1.88,6.28,6.28,0,0,0,4.4-1.4A4.73,4.73,0,0,0,105,89.56a4,4,0,0,0-1.32-3.12,8.93,8.93,0,0,0-3.28-1.84c-1.31-.43-3.16-.93-5.56-1.52a63.45,63.45,0,0,1-8-2.28,12.82,12.82,0,0,1-5.28-3.72,10.43,10.43,0,0,1-2.2-7,11.54,11.54,0,0,1,4.4-9.36q4.4-3.6,12.16-3.6Q104,57.08,108.84,61.16Z"/></g></g></svg>