<svg xmlns="http://www.w3.org/2000/svg" viewBox="0 0 148 148"><defs><style>.cls-1{fill:#ff4ddd;}</style></defs><title>XD</title><g id="Capa_2" data-name="Capa 2"><g id="Capa_1-2" data-name="Capa 1"><path class="cls-1" d="M141,7V141H7V7H141m7-7H0V148H148V0Z"/><path class="cls-1" d="M61,103.32,48.32,84,37,103.32H24.16L41.92,74.44,23.68,46.84H37L49.52,65.72,60.64,46.84H73.52L55.84,75.24,74.4,103.32Z"/><path class="cls-1" d="M107.4,61.08a14.87,14.87,0,0,1,5.72,7.12V44.12h11.2v59.2h-11.2V94a15.11,15.11,0,0,1-5.72,7.16,16.63,16.63,0,0,1-9.56,2.68,19.08,19.08,0,0,1-10.08-2.72,18.34,18.34,0,0,1-7-7.88,27.33,27.33,0,0,1-2.52-12.12A27.33,27.33,0,0,1,80.76,69a18.34,18.34,0,0,1,7-7.88,19.08,19.08,0,0,1,10.08-2.72A16.85,16.85,0,0,1,107.4,61.08ZM92.88,71.72q-3.19,3.44-3.2,9.44t3.2,9.4a12.12,12.12,0,0,0,16.92-.08,13,13,0,0,0,3.32-9.32q0-5.93-3.32-9.4a11.16,11.16,0,0,0-8.44-3.48A11,11,0,0,0,92.88,71.72Z"/></g></g></svg>