<?xml version="1.0" encoding="utf-8"?>
<!-- Generator: Adobe Illustrator 23.1.0, SVG Export Plug-In . SVG Version: 6.00 Build 0)  -->
<svg version="1.1" id="Capa_1" xmlns="http://www.w3.org/2000/svg" xmlns:xlink="http://www.w3.org/1999/xlink" x="0px" y="0px"
	 viewBox="0 0 131.034 131.034" style="enable-background:new 0 0 131.034 131.034;" xml:space="preserve">
<style type="text/css">
	.st0{clip-path:url(#SVGID_2_);}
	.st1{fill:#FFFFFF;}
	.st2{fill:none;}
	.st3{fill:#FFDEE0;}
	.st4{fill:#FF404E;}
	.st5{fill:#121826;}
</style>
<title>Recurso 12</title>
<g>
	<g id="Capa_3">
		<g>
			<defs>
				<circle id="SVGID_1_" cx="65.517" cy="65.517" r="65.517"/>
			</defs>
			<clipPath id="SVGID_2_">
				<use xlink:href="#SVGID_1_"  style="overflow:visible;"/>
			</clipPath>
			<g class="st0">
				<rect y="0" class="st1" width="131.033" height="131.033"/>
				<polygon class="st2" points="141.649,75.589 102.88,46.796 64.106,75.589 25.332,46.796 -13.447,75.589 -25.943,66.311 
					-25.943,74.955 -13.495,84.2 25.281,55.406 64.05,84.2 102.824,55.406 141.598,84.2 180.377,55.406 196.265,67.202 
					196.265,58.559 180.425,46.796 				"/>
				<polygon class="st2" points="141.649,109.448 102.88,80.655 64.106,109.448 25.332,80.655 -13.447,109.448 -25.943,100.17 
					-25.943,108.814 -13.495,118.058 25.281,89.265 64.05,118.058 102.824,89.265 141.598,118.058 180.377,89.265 196.265,101.061 
					196.265,92.418 180.425,80.655 				"/>
				<polygon class="st2" points="141.649,58.66 102.88,29.867 64.106,58.66 25.332,29.867 -13.447,58.66 -25.943,49.382 
					-25.943,58.025 -13.495,67.27 25.281,38.477 64.05,67.27 102.824,38.477 141.598,67.27 180.377,38.477 196.265,50.273 
					196.265,41.63 180.425,29.867 				"/>
				<polygon class="st2" points="141.649,126.378 102.88,97.584 64.106,126.378 25.332,97.584 -13.447,126.378 -25.943,117.1 
					-25.943,125.743 -13.495,134.988 25.281,106.195 64.05,134.988 102.824,106.195 141.598,134.988 180.377,106.195 
					196.265,117.991 196.265,109.348 180.425,97.584 				"/>
				<polygon class="st2" points="141.649,92.519 102.88,63.726 64.106,92.519 25.332,63.726 -13.447,92.519 -25.943,83.241 
					-25.943,91.884 -13.495,101.129 25.281,72.336 64.05,101.129 102.824,72.336 141.598,101.129 180.377,72.336 196.265,84.132 
					196.265,75.489 180.425,63.726 				"/>
				<polygon class="st2" points="196.265,-43.017 192.805,-45.587 181.164,-45.587 196.265,-34.375 				"/>
				<polygon class="st2" points="141.649,143.307 102.88,114.514 64.106,143.307 25.332,114.514 -13.447,143.307 -25.943,134.029 
					-25.943,142.673 -13.495,151.917 25.281,123.124 64.05,151.917 102.824,123.124 141.598,151.917 180.377,123.124 
					196.265,134.92 196.265,126.277 180.425,114.514 				"/>
				<polygon class="st2" points="10.088,176.621 21.634,176.621 25.281,173.913 28.927,176.621 40.574,176.621 25.332,165.303 				
					"/>
				<polygon class="st2" points="87.638,176.621 99.177,176.621 102.824,173.913 106.471,176.621 118.12,176.621 102.88,165.303 
									"/>
				<polygon class="st2" points="-25.943,176.532 -25.823,176.621 -14.182,176.621 -25.943,167.888 				"/>
				<polygon class="st2" points="141.649,41.73 102.88,12.937 64.106,41.73 25.332,12.937 -13.447,41.73 -25.943,32.452 
					-25.943,41.096 -13.495,50.341 25.281,21.547 64.05,50.341 102.824,21.547 141.598,50.341 180.377,21.547 196.265,33.343 
					196.265,24.7 180.425,12.937 				"/>
				<polygon class="st2" points="142.384,176.621 153.929,176.621 180.377,156.983 196.265,168.779 196.265,160.137 
					180.425,148.373 				"/>
				<polygon class="st2" points="141.649,160.237 102.88,131.444 64.106,160.237 25.332,131.444 -13.447,160.237 -25.943,150.959 
					-25.943,159.602 -13.495,168.847 25.281,140.054 64.05,168.847 102.824,140.054 141.598,168.847 180.377,140.054 
					196.265,151.85 196.265,143.207 180.425,131.444 				"/>
				<polygon class="st2" points="165.183,176.621 176.73,176.621 180.377,173.913 184.025,176.621 195.665,176.621 180.425,165.303 
									"/>
				<polygon class="st2" points="64.841,176.621 76.379,176.621 102.824,156.983 129.269,176.621 140.915,176.621 102.88,148.373 
									"/>
				<polygon class="st2" points="-12.713,176.621 -1.165,176.621 25.281,156.983 51.723,176.621 63.372,176.621 25.332,148.373 				
					"/>
				<polygon class="st2" points="102.038,-45.587 90.499,-45.587 64.106,-25.988 37.713,-45.587 26.067,-45.587 64.05,-17.377 				
					"/>
				<polygon class="st2" points="-17.043,-45.587 -25.943,-45.587 -25.943,-43.551 -13.495,-34.307 1.696,-45.587 -9.851,-45.587 
					-13.447,-42.917 				"/>
				<polygon class="st2" points="179.591,-45.587 168.044,-45.587 141.649,-25.988 115.259,-45.587 103.61,-45.587 141.598,-17.377 
									"/>
				<polygon class="st2" points="79.24,-45.587 67.702,-45.587 64.106,-42.917 60.511,-45.587 48.862,-45.587 64.05,-34.307 				"/>
				<polygon class="st2" points="-25.943,-35.265 -25.943,-26.622 -13.495,-17.377 24.495,-45.587 12.949,-45.587 -13.447,-25.988 
									"/>
				<polygon class="st2" points="141.649,24.801 102.88,-3.992 64.106,24.801 25.332,-3.992 -13.447,24.801 -25.943,15.523 
					-25.943,24.166 -13.495,33.411 25.281,4.618 64.05,33.411 102.824,4.618 141.598,33.411 180.377,4.618 196.265,16.414 
					196.265,7.771 180.425,-3.992 				"/>
				<polygon class="st2" points="156.79,-45.587 145.245,-45.587 141.649,-42.917 138.054,-45.587 126.408,-45.587 141.598,-34.307 
									"/>
				<polygon class="st2" points="141.649,7.871 102.88,-20.922 64.106,7.871 25.332,-20.922 -13.447,7.871 -25.943,-1.407 
					-25.943,7.237 -13.495,16.482 25.281,-12.312 64.05,16.482 102.824,-12.312 141.598,16.482 180.377,-12.312 196.265,-0.516 
					196.265,-9.158 180.425,-20.922 				"/>
				<polygon class="st2" points="141.649,-9.058 102.88,-37.851 64.106,-9.058 25.332,-37.851 -13.447,-9.058 -25.943,-18.336 
					-25.943,-9.692 -13.495,-0.448 25.281,-29.241 64.05,-0.448 102.824,-29.241 141.598,-0.448 180.377,-29.241 196.265,-17.445 
					196.265,-26.088 180.425,-37.851 				"/>
				<polygon class="st3" points="-1.165,176.621 10.088,176.621 25.332,165.303 40.574,176.621 51.723,176.621 25.281,156.983 				
					"/>
				<polygon class="st3" points="-25.943,176.621 -25.823,176.621 -25.943,176.532 				"/>
				<polygon class="st3" points="76.379,176.621 87.638,176.621 102.88,165.303 118.12,176.621 129.269,176.621 102.824,156.983 
									"/>
				<polygon class="st3" points="153.929,176.621 165.183,176.621 180.425,165.303 195.665,176.621 196.265,176.621 
					196.265,168.779 180.377,156.983 				"/>
				<polygon class="st3" points="21.634,176.621 28.927,176.621 25.281,173.913 				"/>
				<polygon class="st3" points="176.73,176.621 184.025,176.621 180.377,173.913 				"/>
				<polygon class="st3" points="99.177,176.621 106.471,176.621 102.824,173.913 				"/>
				<polygon class="st3" points="141.598,134.988 102.824,106.195 64.05,134.988 25.281,106.195 -13.495,134.988 -25.943,125.743 
					-25.943,134.029 -13.447,143.307 25.332,114.514 64.106,143.307 102.88,114.514 141.649,143.307 180.425,114.514 
					196.265,126.277 196.265,117.991 180.377,106.195 				"/>
				<polygon class="st3" points="141.598,151.917 102.824,123.124 64.05,151.917 25.281,123.124 -13.495,151.917 -25.943,142.673 
					-25.943,150.959 -13.447,160.237 25.332,131.444 64.106,160.237 102.88,131.444 141.649,160.237 180.425,131.444 
					196.265,143.207 196.265,134.92 180.377,123.124 				"/>
				<polygon class="st3" points="141.598,168.847 102.824,140.054 64.05,168.847 25.281,140.054 -13.495,168.847 -25.943,159.602 
					-25.943,167.888 -14.182,176.621 -12.713,176.621 25.332,148.373 63.372,176.621 64.841,176.621 102.88,148.373 
					140.915,176.621 142.384,176.621 180.425,148.373 196.265,160.137 196.265,151.85 180.377,140.054 				"/>
				<polygon class="st3" points="141.598,118.058 102.824,89.265 64.05,118.058 25.281,89.265 -13.495,118.058 -25.943,108.814 
					-25.943,117.1 -13.447,126.378 25.332,97.584 64.106,126.378 102.88,97.584 141.649,126.378 180.425,97.584 196.265,109.348 
					196.265,101.061 180.377,89.265 				"/>
				<polygon class="st3" points="-13.447,-42.917 -9.851,-45.587 -17.043,-45.587 				"/>
				<polygon class="st3" points="67.702,-45.587 60.511,-45.587 64.106,-42.917 				"/>
				<polygon class="st3" points="145.245,-45.587 138.054,-45.587 141.649,-42.917 				"/>
				<polygon class="st3" points="196.265,-45.587 192.805,-45.587 196.265,-43.017 				"/>
				<polygon class="st3" points="-25.943,-43.551 -25.943,-35.265 -13.447,-25.988 12.949,-45.587 1.696,-45.587 -13.495,-34.307 
									"/>
				<polygon class="st3" points="90.499,-45.587 79.24,-45.587 64.05,-34.307 48.862,-45.587 37.713,-45.587 64.106,-25.988 				"/>
				<polygon class="st3" points="168.044,-45.587 156.79,-45.587 141.598,-34.307 126.408,-45.587 115.259,-45.587 141.649,-25.988 
									"/>
				<polygon class="st3" points="-25.943,-26.622 -25.943,-18.336 -13.447,-9.058 25.332,-37.851 64.106,-9.058 102.88,-37.851 
					141.649,-9.058 180.425,-37.851 196.265,-26.088 196.265,-34.375 181.164,-45.587 179.591,-45.587 141.598,-17.377 
					103.61,-45.587 102.038,-45.587 64.05,-17.377 26.067,-45.587 24.495,-45.587 -13.495,-17.377 				"/>
				<polygon class="st3" points="141.598,50.341 102.824,21.547 64.05,50.341 25.281,21.547 -13.495,50.341 -25.943,41.096 
					-25.943,49.382 -13.447,58.66 25.332,29.867 64.106,58.66 102.88,29.867 141.649,58.66 180.425,29.867 196.265,41.63 
					196.265,33.343 180.377,21.547 				"/>
				<polygon class="st3" points="141.598,101.129 102.824,72.336 64.05,101.129 25.281,72.336 -13.495,101.129 -25.943,91.884 
					-25.943,100.17 -13.447,109.448 25.332,80.655 64.106,109.448 102.88,80.655 141.649,109.448 180.425,80.655 196.265,92.418 
					196.265,84.132 180.377,72.336 				"/>
				<polygon class="st3" points="141.598,67.27 102.824,38.477 64.05,67.27 25.281,38.477 -13.495,67.27 -25.943,58.025 
					-25.943,66.311 -13.447,75.589 25.332,46.796 64.106,75.589 102.88,46.796 141.649,75.589 180.425,46.796 196.265,58.559 
					196.265,50.273 180.377,38.477 				"/>
				<polygon class="st3" points="141.598,84.2 102.824,55.406 64.05,84.2 25.281,55.406 -13.495,84.2 -25.943,74.955 
					-25.943,83.241 -13.447,92.519 25.332,63.726 64.106,92.519 102.88,63.726 141.649,92.519 180.425,63.726 196.265,75.489 
					196.265,67.202 180.377,55.406 				"/>
				<polygon class="st3" points="141.598,16.482 102.824,-12.312 64.05,16.482 25.281,-12.312 -13.495,16.482 -25.943,7.237 
					-25.943,15.523 -13.447,24.801 25.332,-3.992 64.106,24.801 102.88,-3.992 141.649,24.801 180.425,-3.992 196.265,7.771 
					196.265,-0.516 180.377,-12.312 				"/>
				<polygon class="st3" points="141.598,33.411 102.824,4.618 64.05,33.411 25.281,4.618 -13.495,33.411 -25.943,24.166 
					-25.943,32.452 -13.447,41.73 25.332,12.937 64.106,41.73 102.88,12.937 141.649,41.73 180.425,12.937 196.265,24.7 
					196.265,16.414 180.377,4.618 				"/>
				<polygon class="st3" points="141.598,-0.448 102.824,-29.241 64.05,-0.448 25.281,-29.241 -13.495,-0.448 -25.943,-9.692 
					-25.943,-1.407 -13.447,7.871 25.332,-20.922 64.106,7.871 102.88,-20.922 141.649,7.871 180.425,-20.922 196.265,-9.158 
					196.265,-17.445 180.377,-29.241 				"/>
				<path class="st4" d="M89.543,92.05c-2.483-2.214-2.575-4.9-1.964-7.764c-3.324-0.33-6.384-3.093-5.075-7.178
					c3.1-9.678,11.328-18.076,12.267-28.34c0.071-0.834,0.309-1.645,0.7-2.386c-0.513-1.517-1.307-2.925-2.339-4.15
					c-0.615-0.683-1.067-1.495-1.324-2.377c-2.477-1.98-5.337-3.425-8.4-4.246l-26.284-7.042L57.1,28.654l-0.094-0.025l-0.024,0.086
					l-0.094-0.025l-0.023,0.087l-0.1-0.026l-0.023,0.087l-0.085-0.025L56.634,28.9l-0.095-0.025l-0.023,0.086l-0.095-0.025
					l-0.023,0.087l-0.095-0.026l-0.023,0.087l-0.095-0.025l-0.023,0.086l-0.094-0.025l-0.024,0.087l-0.094-0.026l-0.024,0.087
					l-0.094-0.025l-0.023,0.086l-0.095-0.025l-0.023,0.087l-0.095-0.026l-0.023,0.087l-0.095-0.026l-0.023,0.087l-0.095-0.025
					l-0.023,0.086l-0.095-0.025l-0.023,0.087l-0.095-0.026l-0.023,0.087l-0.094-0.025l-0.024,0.086l-0.094-0.025l-0.024,0.087
					l-0.094-0.026l-0.023,0.087l-0.1-0.025l-0.023,0.086l-0.095-0.025l-0.023,0.087l-0.095-0.026l-0.023,0.087l-0.095-0.025
					l-0.023,0.086l-0.095-0.025l-0.023,0.086l-0.096-0.026l-0.023,0.087l-0.094-0.026l-0.024,0.087l-0.094-0.025l-0.023,0.086
					l-0.095-0.025l-0.023,0.087l-0.095-0.026l-0.023,0.087l-0.095-0.025l-0.023,0.086l-0.095-0.025l-0.023,0.087l-0.095-0.026
					l-0.023,0.087l-0.095-0.026l-0.023,0.087l-0.094-0.025l-0.024,0.086l-0.094-0.025l-0.024,0.087l-0.094-0.026l-0.023,0.087
					l-0.095-0.025l-0.023,0.086l-0.095-0.025l-0.023,0.087l-0.095-0.026l-0.023,0.087l-0.095-0.025l-0.023,0.086l-0.095-0.025
					l-0.023,0.087l-0.091-0.026l-0.024,0.087l-0.094-0.026l-0.024,0.087l-0.094-0.025l-0.025,0.087l-0.095-0.025l-0.023,0.087
					l-0.095-0.026l-0.023,0.087l-0.095-0.025l-0.023,0.086l-0.095-0.025l-0.023,0.087l-0.095-0.026l-0.023,0.087l-0.095-0.025
					l-0.023,0.086l-0.094-0.025l-0.024,0.087l-0.094-0.026l-0.024,0.087l-0.094-0.026l-0.023,0.087L50.64,31.94l-0.023,0.086
					l-0.095-0.025l-0.023,0.087l-0.095-0.026l-0.023,0.087l-0.095-0.025l-0.023,0.086l-0.095-0.025l-0.023,0.087l-0.095-0.026
					l-0.023,0.087l-0.094-0.025l-0.024,0.086l-0.094-0.025l-0.024,0.087l-0.094-0.026l-0.023,0.087l-0.095-0.026l-0.023,0.087
					l-0.095-0.025l-0.023,0.086l-0.095-0.025l-0.023,0.087l-0.095-0.026l-0.023,0.087l-0.095-0.025l-0.023,0.086l-0.095-0.025
					l-0.023,0.087l-0.094-0.026l-0.024,0.087l-0.094-0.025l-0.024,0.086l-0.094-0.025l-0.023,0.087l-0.095-0.026l-0.023,0.087
					L48.4,33.104l-0.023,0.087l-0.095-0.025l-0.023,0.086l-0.095-0.025l-0.023,0.087l-0.095-0.026l-0.023,0.087l-0.094-0.025
					l-0.024,0.086l-0.094-0.023L47.787,33.5l-0.094-0.026l-0.023,0.087l-0.095-0.025l-0.023,0.086l-0.095-0.025l-0.023,0.087
					l-0.095-0.026l-0.023,0.087l-0.095-0.026l-0.023,0.087l-0.095-0.025l-0.023,0.086l-0.095-0.025l-0.023,0.087l-0.094-0.026
					l-0.024,0.087l-0.094-0.025l-0.024,0.086l-0.094-0.025l-0.023,0.087l-0.1-0.026l-0.023,0.087l-0.095-0.025l-0.023,0.086
					l-0.095-0.025l-0.023,0.087l-0.095-0.026l-0.023,0.087l-0.095-0.026l-0.018,0.081l-0.095-0.025l-0.023,0.086l-0.094-0.025
					l-0.024,0.087l-0.094-0.026l-0.024,0.087l-0.094-0.025l-0.023,0.086l-0.095-0.025L45.43,34.72l-0.095-0.026l-0.023,0.087
					l-0.095-0.025c-11.338,42.307,1.572-5.865-14.692,54.818l48.094,12.89l-0.023-0.1l0.141,0.038l-0.023-0.1l0.141,0.038
					l-0.023-0.1l0.141,0.038l-0.023-0.1l0.14,0.037l-0.023-0.1l0.141,0.038l-0.023-0.1l0.141,0.038l-0.023-0.1l0.141,0.037
					l-0.023-0.1l0.141,0.038l-0.023-0.1l0.141,0.038l-0.023-0.1l0.141,0.038l-0.023-0.1l0.141,0.038l-0.023-0.1l0.14,0.038
					l-0.023-0.1l0.141,0.038l-0.023-0.1l0.141,0.037l-0.023-0.1l0.141,0.038l-0.023-0.1l0.141,0.038l-0.023-0.1l0.141,0.037
					l-0.023-0.1l0.141,0.038l-0.023-0.1l0.141,0.038l-0.023-0.1l0.141,0.038l-0.023-0.1l0.14,0.038l-0.023-0.1l0.141,0.038
					l-0.023-0.1l0.141,0.038l-0.023-0.1l0.141,0.037l-0.023-0.1l0.141,0.038l-0.023-0.1l0.141,0.038l-0.023-0.1l0.141,0.037
					l-0.023-0.1l0.141,0.038l-0.023-0.1l0.141,0.038l-0.024-0.1l0.141,0.038l-0.023-0.1l0.141,0.038l-0.023-0.1l0.141,0.038
					l-0.023-0.1l0.141,0.038l-0.023-0.1l0.141,0.037l-0.023-0.1l0.141,0.038l-0.023-0.1l0.141,0.038l-0.023-0.1l0.141,0.037
					l-0.023-0.1l0.141,0.038l-0.024-0.1l0.141,0.038l-0.023-0.1l0.141,0.037l-0.023-0.1l0.141,0.037l-0.023-0.1l0.141,0.038
					l-0.023-0.1l0.141,0.038l-0.023-0.1l0.141,0.037l-0.023-0.1l0.141,0.038l-0.023-0.1l0.141,0.038l-0.023-0.1l0.14,0.037
					l-0.023-0.1l0.141,0.038l-0.023-0.1l0.141,0.038l-0.023-0.1l0.141,0.038l-0.023-0.1l0.141,0.038l-0.023-0.1l0.141,0.038
					l-0.023-0.1l0.141,0.038l-0.023-0.1l0.141,0.037l-0.023-0.1l0.141,0.038l-0.023-0.1l0.14,0.038l-0.023-0.1l0.141,0.037
					l-0.023-0.1l0.141,0.038l-0.023-0.1l0.141,0.038l-0.023-0.1l0.141,0.038l-0.023-0.1l0.141,0.038l-0.023-0.1l0.141,0.038
					l-0.023-0.1l0.141,0.038l-0.023-0.1l0.14,0.037l-0.023-0.1l0.141,0.038l-0.023-0.1l0.141,0.038l-0.023-0.1l0.141,0.037
					l-0.023-0.1l0.141,0.038l-0.023-0.1l0.141,0.038l-0.023-0.1l0.141,0.038l-0.023-0.1l0.141,0.038l-0.023-0.1l0.141,0.038
					l-0.023-0.1l0.14,0.038l-0.023-0.1l0.141,0.037l-0.023-0.1l0.141,0.038l-0.023-0.1l0.141,0.038l-0.023-0.1l0.141,0.037
					l-0.023-0.1l0.141,0.038l-0.023-0.1l0.141,0.038l-0.023-0.1l0.141,0.038l-0.023-0.1l0.141,0.038l-0.023-0.1l0.14,0.038
					l-0.023-0.1l0.141,0.038l-0.023-0.1l0.141,0.037l-0.023-0.1l0.141,0.038l-0.023-0.1l0.141,0.038l-0.023-0.1l0.141,0.037
					l-0.023-0.1l0.141,0.038l-0.023-0.1l0.141,0.038l-0.023-0.1l0.14,0.038l-0.023-0.1l0.141,0.038l-0.023-0.1l0.141,0.038
					l-0.023-0.1l0.141,0.038l-0.023-0.1l0.141,0.037l-0.023-0.1l0.141,0.038l-0.023-0.1l0.141,0.038l-0.023-0.1l0.141,0.037
					l-0.023-0.1l0.141,0.038l-0.023-0.1l0.14,0.038l-0.023-0.1l0.141,0.038l-0.023-0.1l0.141,0.038L89.543,92.05z"/>
				<path class="st5" d="M99.713,63.87c-1.798,6.832-6.679,12.435-13.2,15.154l4.01,17.251L42.432,83.386
					c16.263-60.684,3.353-12.512,14.692-54.819l26.275,7.046c12.305,3.292,19.611,15.936,16.318,28.24
					C99.716,63.859,99.715,63.864,99.713,63.87z"/>
			</g>
		</g>
	</g>
</g>
</svg>
